<svg xmlns="http://www.w3.org/2000/svg" width="723" height="141" viewBox="0 0 723 141" version="1.1"><path d="M 651.011 39.899 C 642.592 42.898, 639.049 48.119, 640.432 55.488 C 641.535 61.367, 647.230 64.575, 661 67.071 C 668.577 68.444, 672 70.279, 672 72.966 C 672 76.011, 668.138 78, 662.228 78 C 656.193 78, 651.446 75.980, 650.503 73.011 C 649.967 71.321, 648.997 71, 644.433 71 C 638.049 71, 637.493 72.318, 641.433 78.116 C 648.737 88.865, 674.564 89.324, 680.970 78.818 C 683.787 74.197, 683.605 68.872, 680.504 65.187 C 677.452 61.561, 673.083 59.747, 662 57.508 C 652.803 55.650, 651 54.736, 651 51.934 C 651 48.914, 654.924 47, 661.118 47 C 665.859 47, 667.177 47.408, 669.145 49.483 C 671.064 51.506, 672.472 51.969, 676.750 51.983 C 682.684 52.002, 683.082 51.287, 679.970 46.182 C 675.757 39.273, 661.468 36.172, 651.011 39.899 M 434.968 39.750 C 434.950 40.163, 437.983 50.755, 441.708 63.289 L 448.480 86.078 455.414 85.789 L 462.347 85.500 464.638 78 C 465.898 73.875, 467.904 65.888, 469.095 60.250 C 470.286 54.612, 471.643 50, 472.111 50 C 473.029 50, 473.225 50.685, 475.530 61.944 C 476.368 66.039, 478.194 73.126, 479.588 77.694 L 482.121 86 488.993 86 C 494.673 86, 495.955 85.696, 496.385 84.250 C 496.671 83.287, 499.421 73.950, 502.496 63.500 C 505.571 53.050, 508.493 43.263, 508.991 41.750 L 509.896 39 504.133 39 L 498.371 39 494.754 51.750 C 492.765 58.763, 490.848 66.075, 490.494 68 C 489.081 75.688, 488.703 75.456, 486.422 65.493 C 485.163 59.997, 483.041 51.900, 481.707 47.500 L 479.282 39.500 472.196 39.207 L 465.110 38.915 462.983 46.207 C 461.812 50.218, 460.203 55.750, 459.407 58.500 C 458.610 61.250, 457.371 66.200, 456.654 69.500 L 455.349 75.500 454.119 69.500 C 453.443 66.200, 451.272 57.987, 449.296 51.250 L 445.702 39 440.351 39 C 437.408 39, 434.986 39.337, 434.968 39.750 M 518 62.500 L 518 86 523.476 86 L 528.952 86 529.226 69.332 L 529.500 52.664 536.976 62.332 C 541.088 67.650, 544.688 71.996, 544.976 71.990 C 545.264 71.985, 548.875 67.634, 553 62.322 L 560.500 52.664 560.774 69.332 L 561.048 86 566.524 86 L 572 86 572 62.500 L 572 39 565.668 39 L 559.337 39 552.418 47.970 C 548.613 52.904, 545.275 56.935, 545 56.928 C 544.725 56.922, 541.350 52.887, 537.500 47.961 L 530.500 39.004 524.250 39.002 L 518 39 518 62.500 M 599.540 42.206 C 598.773 44.017, 594.110 54.612, 589.178 65.750 L 580.211 86 585.982 86 L 591.753 86 594.126 80.517 L 596.500 75.034 608 75.018 L 619.500 75.002 621.632 80.251 L 623.763 85.500 629.794 85.795 L 635.825 86.091 625.540 62.795 L 615.256 39.500 608.096 39.206 L 600.935 38.911 599.540 42.206 M 604.774 55.753 C 603.275 59.464, 601.765 63.288, 601.417 64.250 C 600.854 65.813, 601.554 66, 607.960 66 C 614.892 66, 615.111 65.926, 614.438 63.805 C 613.526 60.931, 608.168 48.999, 607.792 49.003 C 607.631 49.005, 606.273 52.043, 604.774 55.753" stroke="none" fill="#173d44" fill-rule="evenodd"/><path d="M 26 29 L 26 32 224 32 L 422 32 422 62.500 L 422 93 224 93 L 26 93 26 96 L 26 99 361.500 99 L 697 99 697 62.500 L 697 26 361.500 26 L 26 26 26 29 M 651.011 39.899 C 642.592 42.898, 639.049 48.119, 640.432 55.488 C 641.535 61.367, 647.230 64.575, 661 67.071 C 668.577 68.444, 672 70.279, 672 72.966 C 672 76.011, 668.138 78, 662.228 78 C 656.193 78, 651.446 75.980, 650.503 73.011 C 649.967 71.321, 648.997 71, 644.433 71 C 638.049 71, 637.493 72.318, 641.433 78.116 C 648.737 88.865, 674.564 89.324, 680.970 78.818 C 683.787 74.197, 683.605 68.872, 680.504 65.187 C 677.452 61.561, 673.083 59.747, 662 57.508 C 652.803 55.650, 651 54.736, 651 51.934 C 651 48.914, 654.924 47, 661.118 47 C 665.859 47, 667.177 47.408, 669.145 49.483 C 671.064 51.506, 672.472 51.969, 676.750 51.983 C 682.684 52.002, 683.082 51.287, 679.970 46.182 C 675.757 39.273, 661.468 36.172, 651.011 39.899 M 50.385 40.560 C 45.476 42.369, 38.515 48.104, 36.501 51.998 C 33.796 57.229, 32.925 63.546, 34.127 69.216 C 35.668 76.489, 43.085 84.070, 50.932 86.392 C 60.904 89.344, 70.102 88.246, 76.750 83.311 L 80 80.898 80 83.949 C 80 86.944, 80.093 87, 85 87 L 90 87 90 74.500 L 90 62 74.500 62 L 59 62 59 66 L 59 70 68 70 C 77.740 70, 78.611 70.602, 74.448 74.460 C 69.231 79.295, 57.994 79.847, 51.494 75.588 C 42.632 69.782, 43.954 55.141, 53.766 50.414 C 60.828 47.012, 72.048 48.901, 75.252 54.031 C 76.262 55.649, 77.597 56, 82.741 56 C 90.078 56, 90.427 55.270, 86.009 49.172 C 81.309 42.683, 74.476 39.698, 63.500 39.339 C 57.289 39.135, 53.225 39.514, 50.385 40.560 M 161.969 40.536 C 156.285 42.288, 149.582 47.952, 146.796 53.357 C 143.886 59.001, 143.886 67.999, 146.796 73.643 C 151.461 82.694, 161.331 88, 173.500 88 C 190.475 88, 202.340 77.921, 202.340 63.500 C 202.340 48.893, 190.351 38.886, 173.068 39.070 C 169.456 39.108, 164.461 39.768, 161.969 40.536 M 279.385 40.560 C 274.476 42.369, 267.515 48.104, 265.501 51.998 C 262.796 57.229, 261.925 63.546, 263.127 69.216 C 264.668 76.489, 272.085 84.070, 279.932 86.392 C 289.904 89.344, 299.102 88.246, 305.750 83.311 L 309 80.898 309 83.949 C 309 86.944, 309.093 87, 314 87 L 319 87 319 74.500 L 319 62 303.500 62 L 288 62 288 66 L 288 70 297 70 C 306.740 70, 307.611 70.602, 303.448 74.460 C 298.231 79.295, 286.994 79.847, 280.494 75.588 C 271.632 69.782, 272.954 55.141, 282.766 50.414 C 289.828 47.012, 301.048 48.901, 304.252 54.031 C 305.262 55.649, 306.597 56, 311.741 56 C 319.078 56, 319.427 55.270, 315.009 49.172 C 310.309 42.683, 303.476 39.698, 292.500 39.339 C 286.289 39.135, 282.225 39.514, 279.385 40.560 M 434.968 39.750 C 434.950 40.163, 437.983 50.755, 441.708 63.289 L 448.480 86.078 455.414 85.789 L 462.347 85.500 464.638 78 C 465.898 73.875, 467.904 65.888, 469.095 60.250 C 470.286 54.612, 471.643 50, 472.111 50 C 473.029 50, 473.225 50.685, 475.530 61.944 C 476.368 66.039, 478.194 73.126, 479.588 77.694 L 482.121 86 488.993 86 C 494.673 86, 495.955 85.696, 496.385 84.250 C 496.671 83.287, 499.421 73.950, 502.496 63.500 C 505.571 53.050, 508.493 43.263, 508.991 41.750 L 509.896 39 504.133 39 L 498.371 39 494.754 51.750 C 492.765 58.763, 490.848 66.075, 490.494 68 C 489.081 75.688, 488.703 75.456, 486.422 65.493 C 485.163 59.997, 483.041 51.900, 481.707 47.500 L 479.282 39.500 472.196 39.207 L 465.110 38.915 462.983 46.207 C 461.812 50.218, 460.203 55.750, 459.407 58.500 C 458.610 61.250, 457.371 66.200, 456.654 69.500 L 455.349 75.500 454.119 69.500 C 453.443 66.200, 451.272 57.987, 449.296 51.250 L 445.702 39 440.351 39 C 437.408 39, 434.986 39.337, 434.968 39.750 M 518 62.500 L 518 86 523.476 86 L 528.952 86 529.226 69.332 L 529.500 52.664 536.976 62.332 C 541.088 67.650, 544.688 71.996, 544.976 71.990 C 545.264 71.985, 548.875 67.634, 553 62.322 L 560.500 52.664 560.774 69.332 L 561.048 86 566.524 86 L 572 86 572 62.500 L 572 39 565.668 39 L 559.337 39 552.418 47.970 C 548.613 52.904, 545.275 56.935, 545 56.928 C 544.725 56.922, 541.350 52.887, 537.500 47.961 L 530.500 39.004 524.250 39.002 L 518 39 518 62.500 M 599.540 42.206 C 598.773 44.017, 594.110 54.612, 589.178 65.750 L 580.211 86 585.982 86 L 591.753 86 594.126 80.517 L 596.500 75.034 608 75.018 L 619.500 75.002 621.632 80.251 L 623.763 85.500 629.794 85.795 L 635.825 86.091 625.540 62.795 L 615.256 39.500 608.096 39.206 L 600.935 38.911 599.540 42.206 M 101 63.500 L 101 87 120 87 L 139 87 139 82.500 L 139 78 126 78 L 113 78 113 73 L 113 68 124.500 68 L 136 68 136 63.500 L 136 59 124.500 59 L 113 59 113 54 L 113 49 126 49 L 139 49 139 44.500 L 139 40 120 40 L 101 40 101 63.500 M 212 63.500 L 212 87 218 87 L 224 87 224 79 L 224 71 226.911 71 C 229.305 71, 231.035 72.406, 236.661 78.926 L 243.500 86.851 250.872 86.926 C 259.336 87.011, 259.460 88.006, 249.604 76.739 C 246.351 73.020, 243.871 69.870, 244.094 69.739 C 244.318 69.607, 246.107 68.685, 248.070 67.689 C 252.772 65.305, 255.001 61.332, 254.996 55.346 C 254.991 48.980, 252.188 44.442, 246.729 41.964 C 243.160 40.343, 240.121 40.040, 227.250 40.022 L 212 40 212 63.500 M 330 63.500 L 330 87 336 87 L 342 87 342 63.500 L 342 40 336 40 L 330 40 330 63.500 M 360.746 61.801 C 355.435 73.791, 350.797 84.366, 350.438 85.301 C 349.866 86.791, 350.576 87, 356.209 87 L 362.632 87 364.912 81.500 L 367.191 76 378 76 L 388.809 76 391.088 81.500 L 393.368 87 399.791 87 C 405.424 87, 406.134 86.791, 405.562 85.301 C 405.203 84.366, 400.565 73.791, 395.254 61.801 L 385.598 40 378 40 L 370.402 40 360.746 61.801 M 169.500 48.938 C 161.024 50.994, 156.681 55.965, 156.672 63.622 C 156.657 75.359, 170.918 82.389, 182.526 76.367 C 192.706 71.085, 192.986 56.089, 183 51.040 C 178.591 48.811, 173.373 47.998, 169.500 48.938 M 224 55.500 L 224 62 230.032 62 C 233.350 62, 237.625 61.348, 239.532 60.551 C 242.579 59.278, 243 58.665, 243 55.500 C 243 52.335, 242.579 51.722, 239.532 50.449 C 237.625 49.652, 233.350 49, 230.032 49 L 224 49 224 55.500 M 604.774 55.753 C 603.275 59.464, 601.765 63.288, 601.417 64.250 C 600.854 65.813, 601.554 66, 607.960 66 C 614.892 66, 615.111 65.926, 614.438 63.805 C 613.526 60.931, 608.168 48.999, 607.792 49.003 C 607.631 49.005, 606.273 52.043, 604.774 55.753 M 374.258 59.500 L 371.127 67 378 67 L 384.873 67 381.742 59.500 C 380.020 55.375, 378.336 52, 378 52 C 377.664 52, 375.980 55.375, 374.258 59.500 M 94.477 107.250 C 93.265 110.545, 91.020 118.638, 91.011 119.750 C 91.005 120.438, 91.657 121, 92.460 121 C 93.386 121, 94.665 118.587, 95.960 114.395 C 97.082 110.762, 98 107.387, 98 106.895 C 98 105.527, 95 105.830, 94.477 107.250 M 102.477 107.250 C 101.265 110.545, 99.020 118.638, 99.011 119.750 C 99.005 120.438, 99.658 121, 100.461 121 C 101.335 121, 102.381 119.291, 103.063 116.750 C 104.769 110.388, 105.015 110.347, 108.212 115.886 C 109.836 118.699, 111.790 121, 112.554 121 C 113.995 121, 118.726 107.393, 117.657 106.323 C 116.321 104.988, 114.204 107.101, 113.588 110.385 C 112.625 115.513, 111.562 115.535, 108.880 110.480 C 106.552 106.091, 103.475 104.539, 102.477 107.250 M 122.527 107.616 C 120.294 109.849, 120.972 111.124, 125.833 113.830 C 131.295 116.871, 130.281 118.426, 123.366 117.613 C 117.221 116.891, 116.197 118.250, 121.553 120.018 C 130.699 123.036, 137.597 115.783, 129.011 112.176 C 123.854 110.009, 124.471 108.435, 130.358 108.742 C 132.911 108.876, 135 108.586, 135 108.099 C 135 105.591, 124.942 105.201, 122.527 107.616 M 138.477 107.250 C 137.265 110.545, 135.020 118.638, 135.011 119.750 C 135.005 120.438, 135.657 121, 136.460 121 C 137.386 121, 138.665 118.587, 139.960 114.395 C 141.082 110.762, 142 107.387, 142 106.895 C 142 105.527, 139 105.830, 138.477 107.250 M 147.888 107.500 C 146.451 108.280, 144.710 110.285, 144.019 111.954 C 142.960 114.510, 143.012 115.370, 144.347 117.407 C 146.146 120.152, 150.609 121.464, 154.924 120.517 C 157.025 120.055, 158.155 118.995, 158.937 116.750 C 160.244 113.002, 159.269 111.723, 155.449 112.172 C 152.093 112.566, 150.846 115, 154 115 C 155.289 115, 155.998 115.506, 155.750 116.250 C 155.511 116.966, 153.661 117.500, 151.417 117.500 C 147.930 117.500, 147.467 117.211, 147.195 114.866 C 146.712 110.704, 151.259 107.662, 156.735 108.483 C 159.222 108.856, 161 108.725, 161 108.168 C 161 105.704, 152.033 105.247, 147.888 107.500 M 165.477 107.250 C 164.265 110.545, 162.020 118.638, 162.011 119.750 C 161.987 122.452, 164.910 120.803, 166 117.500 C 167.062 114.282, 167.475 114, 171.123 114 L 175.091 114 174.434 117.500 C 173.918 120.252, 174.102 121, 175.297 121 C 176.724 121, 181 110.677, 181 107.233 C 181 104.872, 177.620 106.372, 177.004 109.005 C 176.509 111.119, 175.763 111.548, 172.117 111.812 L 167.814 112.124 168.486 109.062 C 169.019 106.635, 168.825 106, 167.548 106 C 166.662 106, 165.730 106.563, 165.477 107.250 M 184 107.004 C 184 107.552, 185.125 108, 186.500 108 C 189.457 108, 189.422 107.740, 187.407 114.670 C 186.532 117.683, 186.062 120.396, 186.364 120.698 C 187.852 122.185, 189.779 119.617, 191.311 114.106 C 192.888 108.435, 193.214 108, 195.893 108 C 197.996 108, 198.740 108.461, 198.639 109.700 C 198.554 110.739, 200.156 112.325, 202.759 113.780 C 208.287 116.869, 207.313 118.430, 200.366 117.613 C 194.221 116.891, 193.197 118.250, 198.553 120.018 C 207.699 123.036, 214.597 115.783, 206.011 112.176 C 200.854 110.009, 201.471 108.435, 207.358 108.742 C 211.787 108.974, 213.586 107.823, 210.592 106.674 C 207.971 105.668, 184 105.966, 184 107.004 M 222.477 107.250 C 221.265 110.545, 219.020 118.638, 219.011 119.750 C 218.987 122.452, 221.910 120.803, 223 117.500 C 224.059 114.291, 224.481 114, 228.078 114 C 230.235 114, 232 113.550, 232 113 C 232 112.450, 230.392 112, 228.427 112 C 225.564 112, 224.919 111.652, 225.186 110.250 C 225.436 108.931, 226.687 108.425, 230.259 108.195 C 232.867 108.028, 235 107.465, 235 106.945 C 235 105.476, 223.023 105.768, 222.477 107.250 M 237.763 108.344 C 234.264 111.587, 233.495 114.580, 235.410 117.502 C 237.259 120.325, 242.366 121.572, 246.164 120.128 C 252.316 117.789, 254.995 111.115, 251.171 107.655 C 248.322 105.076, 240.876 105.459, 237.763 108.344 M 257.477 107.250 C 256.265 110.545, 254.020 118.638, 254.011 119.750 C 253.989 122.227, 256.828 120.933, 257.850 118 C 259.185 114.171, 260.697 114.212, 264 118.169 C 267.043 121.814, 270.105 121.416, 267.511 117.712 C 265.504 114.846, 265.576 114.514, 268.500 113.182 C 271.371 111.874, 271.969 107.586, 269.418 106.607 C 266.494 105.485, 257.958 105.945, 257.477 107.250 M 281 107 C 281 107.550, 282.125 108, 283.500 108 C 286.457 108, 286.422 107.740, 284.407 114.670 C 283.532 117.683, 283.062 120.396, 283.364 120.698 C 284.852 122.185, 286.779 119.617, 288.311 114.106 C 289.896 108.403, 290.202 108, 292.945 108 C 294.560 108, 296.160 107.550, 296.500 107 C 296.892 106.365, 294.177 106, 289.059 106 C 284.353 106, 281 106.416, 281 107 M 298.477 107.250 C 297.265 110.545, 295.020 118.638, 295.011 119.750 C 294.987 122.452, 297.910 120.803, 299 117.500 C 300.062 114.282, 300.475 114, 304.123 114 L 308.091 114 307.434 117.500 C 306.918 120.252, 307.102 121, 308.297 121 C 309.724 121, 314 110.677, 314 107.233 C 314 104.872, 310.620 106.372, 310.004 109.005 C 309.509 111.119, 308.763 111.548, 305.117 111.812 L 300.814 112.124 301.486 109.062 C 302.019 106.635, 301.825 106, 300.548 106 C 299.662 106, 298.730 106.563, 298.477 107.250 M 318.477 107.250 C 317.242 110.607, 315.020 118.649, 315.011 119.798 C 314.996 121.562, 327.163 121.039, 327.754 119.250 C 328.045 118.369, 326.782 118, 323.476 118 C 319.610 118, 318.893 117.722, 319.393 116.418 C 319.727 115.548, 320 114.648, 320 114.418 C 320 114.188, 321.800 114, 324 114 C 326.200 114, 328 113.550, 328 113 C 328 112.450, 326.392 112, 324.427 112 C 321.564 112, 320.919 111.652, 321.186 110.250 C 321.436 108.931, 322.687 108.425, 326.259 108.195 C 328.867 108.028, 331 107.465, 331 106.945 C 331 105.476, 319.023 105.768, 318.477 107.250 M 341.477 107.250 C 340.265 110.545, 338.020 118.638, 338.011 119.750 C 337.989 122.227, 340.828 120.933, 341.850 118 C 342.752 115.412, 343.393 115, 346.514 115 C 353.002 115, 357.569 110.712, 354.427 107.569 C 352.470 105.613, 342.173 105.359, 341.477 107.250 M 358.887 108.750 C 356.577 114.728, 356.638 117.633, 359.113 119.367 C 363.213 122.238, 369.784 120.828, 371.820 116.640 C 373.546 113.091, 375.236 106.903, 374.643 106.309 C 373.359 105.025, 371.140 107.098, 370.496 110.182 C 369.361 115.620, 367.336 118, 363.845 118 C 360.817 118, 360.752 117.903, 361.316 114.250 C 361.635 112.188, 362.197 109.487, 362.565 108.250 C 363.572 104.862, 360.214 105.318, 358.887 108.750 M 378.477 107.250 C 377.265 110.545, 375.020 118.638, 375.011 119.750 C 374.997 121.359, 382.241 121.320, 387 119.685 C 389.920 118.682, 390.513 117.986, 390.576 115.491 C 390.618 113.846, 391.006 111.707, 391.438 110.737 C 392.798 107.686, 390.275 106, 384.346 106 C 380.931 106, 378.768 106.461, 378.477 107.250 M 397.477 107.250 C 396.265 110.545, 394.020 118.638, 394.011 119.750 C 394.003 120.612, 395.861 121, 400 121 C 404.667 121, 406 120.667, 406 119.500 C 406 118.417, 404.889 118, 402 118 C 399.800 118, 398.005 117.888, 398.011 117.750 C 398.017 117.612, 398.692 115.291, 399.511 112.591 C 400.330 109.891, 401 107.304, 401 106.841 C 401 105.513, 397.988 105.862, 397.477 107.250 M 412.477 107.250 C 411.265 110.545, 409.020 118.638, 409.011 119.750 C 409.005 120.438, 409.657 121, 410.460 121 C 411.386 121, 412.665 118.587, 413.960 114.395 C 415.082 110.762, 416 107.387, 416 106.895 C 416 105.527, 413 105.830, 412.477 107.250 M 421.888 107.475 C 420.451 108.269, 418.710 110.285, 418.019 111.954 C 416.957 114.517, 417.012 115.370, 418.374 117.447 C 420.301 120.390, 425.353 121.577, 429.399 120.038 C 433.246 118.576, 431.903 117.522, 426.177 117.510 C 421.872 117.501, 421.476 117.291, 421.195 114.866 C 420.729 110.847, 425.302 107.633, 430.339 108.438 C 433.213 108.898, 434.078 108.731, 433.764 107.777 C 433.164 105.955, 425.011 105.748, 421.888 107.475 M 444.477 107.250 C 443.265 110.545, 441.020 118.638, 441.011 119.750 C 441.003 120.637, 443.126 121, 448.326 121 C 454.847 121, 455.909 120.725, 458 118.500 C 459.440 116.967, 461.452 116, 463.199 116 C 465.319 116, 466.293 116.640, 467 118.500 C 467.911 120.896, 469.062 121.604, 470.198 120.468 C 470.682 119.984, 469.834 113.900, 468.495 108.250 C 467.566 104.330, 464.484 105.647, 459.120 112.259 C 454.091 118.457, 453.998 118.514, 449.521 118.158 C 447.034 117.960, 445.005 117.731, 445.011 117.649 C 445.017 117.567, 445.692 115.291, 446.511 112.591 C 447.330 109.891, 448 107.304, 448 106.841 C 448 105.513, 444.988 105.862, 444.477 107.250 M 475.477 107.250 C 474.265 110.545, 472.020 118.638, 472.011 119.750 C 472.005 120.438, 472.658 121, 473.461 121 C 474.335 121, 475.381 119.291, 476.063 116.750 C 477.769 110.388, 478.015 110.347, 481.212 115.886 C 482.836 118.699, 484.790 121, 485.554 121 C 486.995 121, 491.726 107.393, 490.657 106.323 C 489.321 104.988, 487.204 107.101, 486.588 110.385 C 485.625 115.513, 484.562 115.535, 481.880 110.480 C 479.552 106.091, 476.475 104.539, 475.477 107.250 M 495.669 106.750 C 494.561 108.602, 491.782 120.116, 492.315 120.648 C 492.641 120.975, 495.481 120.921, 498.624 120.528 C 512.152 118.838, 514.303 106, 501.059 106 C 498.341 106, 495.916 106.338, 495.669 106.750 M 521.477 107.250 C 520.265 110.545, 518.020 118.638, 518.011 119.750 C 517.987 122.452, 520.910 120.803, 522 117.500 C 523.062 114.282, 523.475 114, 527.123 114 L 531.091 114 530.434 117.500 C 529.918 120.252, 530.102 121, 531.297 121 C 532.724 121, 537 110.677, 537 107.233 C 537 104.872, 533.620 106.372, 533.004 109.005 C 532.509 111.119, 531.763 111.548, 528.117 111.812 L 523.814 112.124 524.486 109.062 C 525.019 106.635, 524.825 106, 523.548 106 C 522.662 106, 521.730 106.563, 521.477 107.250 M 540.887 108.750 C 538.577 114.728, 538.638 117.633, 541.113 119.367 C 545.213 122.238, 551.784 120.828, 553.820 116.640 C 555.546 113.091, 557.236 106.903, 556.643 106.309 C 555.359 105.025, 553.140 107.098, 552.496 110.182 C 551.361 115.620, 549.336 118, 545.845 118 C 542.817 118, 542.752 117.903, 543.316 114.250 C 543.635 112.188, 544.197 109.487, 544.565 108.250 C 545.572 104.862, 542.214 105.318, 540.887 108.750 M 561.477 107.250 C 560.265 110.545, 558.020 118.638, 558.011 119.750 C 558.005 120.438, 558.658 121, 559.461 121 C 560.335 121, 561.381 119.291, 562.063 116.750 C 563.769 110.388, 564.015 110.347, 567.212 115.886 C 568.836 118.699, 570.790 121, 571.554 121 C 572.995 121, 577.726 107.393, 576.657 106.323 C 575.321 104.988, 573.204 107.101, 572.588 110.385 C 571.625 115.513, 570.562 115.535, 567.880 110.480 C 565.552 106.091, 562.475 104.539, 561.477 107.250 M 580 107 C 580 107.550, 581.125 108, 582.500 108 C 585.457 108, 585.422 107.740, 583.407 114.670 C 582.532 117.683, 582.062 120.396, 582.364 120.698 C 583.852 122.185, 585.779 119.617, 587.311 114.106 C 588.896 108.403, 589.202 108, 591.945 108 C 593.560 108, 595.160 107.550, 595.500 107 C 595.892 106.365, 593.177 106, 588.059 106 C 583.353 106, 580 106.416, 580 107 M 598.477 107.250 C 597.242 110.607, 595.020 118.649, 595.011 119.798 C 594.996 121.562, 607.163 121.039, 607.754 119.250 C 608.045 118.369, 606.782 118, 603.476 118 C 599.610 118, 598.893 117.722, 599.393 116.418 C 599.727 115.548, 600 114.648, 600 114.418 C 600 114.188, 601.800 114, 604 114 C 606.200 114, 608 113.550, 608 113 C 608 112.450, 606.392 112, 604.427 112 C 601.564 112, 600.919 111.652, 601.186 110.250 C 601.436 108.931, 602.687 108.425, 606.259 108.195 C 608.867 108.028, 611 107.465, 611 106.945 C 611 105.476, 599.023 105.768, 598.477 107.250 M 614.477 107.250 C 613.265 110.545, 611.020 118.638, 611.011 119.750 C 610.989 122.227, 613.828 120.933, 614.850 118 C 616.185 114.171, 617.697 114.212, 621 118.169 C 624.043 121.814, 627.105 121.416, 624.511 117.712 C 622.504 114.846, 622.576 114.514, 625.500 113.182 C 628.371 111.874, 628.969 107.586, 626.418 106.607 C 623.494 105.485, 614.958 105.945, 614.477 107.250 M 240.640 110.068 C 238.653 111.632, 237.974 112.963, 238.195 114.866 C 238.447 117.047, 239.076 117.555, 241.844 117.820 C 246.308 118.248, 249.199 115.642, 248.799 111.551 C 248.414 107.616, 244.632 106.929, 240.640 110.068 M 260.667 108.667 C 258.900 110.434, 260.203 112, 263.441 112 C 267.187 112, 269.077 110.297, 266.878 108.904 C 265.239 107.865, 261.606 107.727, 260.667 108.667 M 344.667 108.667 C 344.300 109.033, 344 110.215, 344 111.292 C 344 112.964, 344.470 113.156, 347.219 112.606 C 350.973 111.855, 352.499 110.617, 351.554 109.087 C 350.821 107.902, 345.742 107.592, 344.667 108.667 M 381.667 108.667 C 380.220 110.114, 381.119 111.999, 383.250 111.985 C 386.225 111.964, 388.427 110.500, 387.569 109.112 C 386.821 107.901, 382.740 107.593, 381.667 108.667 M 498.557 109.250 C 498.347 109.938, 497.687 112.030, 497.088 113.899 C 496.490 115.769, 496 117.456, 496 117.649 C 496 118.687, 501.875 117.776, 503.777 116.443 C 506.531 114.515, 506.690 110.439, 504.066 109.035 C 501.451 107.636, 499.019 107.731, 498.557 109.250 M 617.667 108.667 C 615.900 110.434, 617.203 112, 620.441 112 C 624.187 112, 626.077 110.297, 623.878 108.904 C 622.239 107.865, 618.606 107.727, 617.667 108.667 M 26 112 L 26 115 54.500 115 L 83 115 83 112 L 83 109 54.500 109 L 26 109 26 112 M 463.723 111 C 462.126 113.246, 462.108 113.534, 463.551 113.838 C 465.709 114.293, 466.224 113.614, 465.831 110.836 L 465.500 108.500 463.723 111 M 639 113 L 639 116 667.500 116 L 696 116 696 113 L 696 110 667.500 110 L 639 110 639 113 M 379.607 115.582 C 378.696 117.955, 378.748 118.001, 382.250 117.985 C 386.109 117.967, 388.526 116.661, 387.569 115.112 C 386.496 113.376, 380.314 113.740, 379.607 115.582" stroke="none" fill="#fbbb4b" fill-rule="evenodd"/></svg>